<svg width="28" height="28" viewBox="0 0 28 28" fill="none" xmlns="http://www.w3.org/2000/svg">
<path d="M12.7451 3.14548L9.89619 9.17699L3.52295 10.1468C3.26568 10.1871 3.02429 10.3016 2.82597 10.4774C2.62764 10.6532 2.48026 10.8834 2.40043 11.1419C2.32059 11.4005 2.31147 11.6772 2.37409 11.9409C2.43671 12.2046 2.56858 12.4448 2.75486 12.6344L7.3618 17.3279L6.2709 23.9575C6.22716 24.2255 6.25602 24.5007 6.35423 24.7524C6.45242 25.004 6.61606 25.222 6.82663 25.3817C7.0372 25.5414 7.28632 25.6364 7.54588 25.656C7.80542 25.6755 8.06505 25.6191 8.29543 25.4927L13.9966 22.3619L19.6994 25.4996C19.9297 25.626 20.1894 25.6825 20.4489 25.6629C20.7085 25.6433 20.9576 25.5483 21.1682 25.3886C21.3787 25.229 21.5424 25.011 21.6406 24.7593C21.7388 24.5077 21.7676 24.2324 21.7239 23.9644L20.633 17.3279L25.245 12.6362C25.4313 12.4463 25.5631 12.2058 25.6255 11.9419C25.688 11.6779 25.6786 11.401 25.5984 11.1424C25.5182 10.8837 25.3704 10.6536 25.1716 10.478C24.9729 10.3024 24.7311 10.1883 24.4735 10.1485L18.1003 9.17872L15.2498 3.14548C15.1343 2.90167 14.9558 2.69642 14.7345 2.55292C14.5132 2.40942 14.2579 2.33337 13.9974 2.33337C13.7369 2.33337 13.4817 2.40942 13.2604 2.55292C13.039 2.69642 12.8606 2.90167 12.7451 3.14548Z" fill="#FFBE00"/>
</svg>
