<!DOCTYPE svg PUBLIC "-//W3C//DTD SVG 1.1//EN" "http://www.w3.org/Graphics/SVG/1.1/DTD/svg11.dtd">
<!-- Uploaded to: SVG Repo, www.svgrepo.com, Transformed by: SVG Repo Mixer Tools -->
<svg height="800px" width="800px" version="1.1" id="_x35_" xmlns="http://www.w3.org/2000/svg" xmlns:xlink="http://www.w3.org/1999/xlink" viewBox="0 0 512 512" xml:space="preserve" fill="#000000">
<g id="SVGRepo_bgCarrier" stroke-width="0"/>
<g id="SVGRepo_tracerCarrier" stroke-linecap="round" stroke-linejoin="round"/>
<g id="SVGRepo_iconCarrier"> <g> <path style="fill:#000000;" d="M221.625,406.424c0.428-0.063,0.847-0.136,1.267-0.202c0.309-0.022,0.626-0.059,0.921-0.059 l0.029-0.1c91.588-14.893,161.534-94.35,161.534-190.16c0-95.403-33.6-150.357-68.96-215.904H290.07 c4.352,8.221,8.718,16.218,12.96,24.038c26.362,48.452,49.712,91.426,56.861,152.239c-12.025-1.727-25.912-2.773-42.62-2.773 c-65.021,0-87.369,15.722-123.06,26.524c-23.88-8.774-48.615-17.235-96.323-17.235c-33.339,0-55.448,4.135-73.897,9.617 c4.627-69.582,29.723-115.744,58.338-168.372C86.592,16.218,90.944,8.221,95.303,0H68.971C33.578,65.546,0,120.501,0,215.904 c0,95.811,69.936,175.268,161.531,190.16l0.015,0.1c0.316,0,0.618,0.037,0.935,0.059c0.412,0.066,0.839,0.139,1.266,0.202 c6.259,1.392,10.147,7.003,10.147,13.715v45.713c0,7.474-5.036,15.644-12.348,15.644l-32.113,6.642 c-6.193,0-11.237,4.915-11.237,10.971v1.918c0,6.06,5.044,10.972,11.237,10.972h61.699h3.115h61.677 c6.215,0,11.244-4.912,11.244-10.972v-1.918c0-6.056-5.029-10.971-11.244-10.971l-32.113-6.642c-7.298,0-12.334-8.17-12.334-15.644 v-45.713C211.478,413.428,215.359,407.816,221.625,406.424z"/> <path style="fill:#000000;" d="M267.169,501.028v-1.918c0-6.056-5.029-10.971-11.244-10.971l-32.113-6.642 c-7.298,0-12.334-8.17-12.334-15.644v-45.713c0-6.712,3.881-12.323,10.147-13.715c0.428-0.063,0.847-0.136,1.267-0.202 c0.309-0.022,0.626-0.059,0.921-0.059l0.029-0.1c91.588-14.893,161.534-94.35,161.534-190.16c0-95.403-33.6-150.357-68.96-215.904 H290.07c4.352,8.221,8.718,16.218,12.96,24.038c26.362,48.452,49.712,91.426,56.861,152.239 c-12.025-1.727-25.912-2.773-42.62-2.773c-65.013,0-87.361,15.714-123.023,26.512V512h61.677 C262.14,512,267.169,507.088,267.169,501.028z"/> <g> <path style="fill:#202a79;" d="M23.991,192.41c-0.023,0.244-0.045,0.49-0.063,0.74c23.556,8.63,48.246,16.837,95.233,16.837 c34.034,0,56.368-4.308,75.049-9.959c-23.88-8.774-48.615-17.235-96.323-17.235C64.549,182.793,42.441,186.928,23.991,192.41z"/> <path style="opacity:0.37;fill:#000000;" d="M359.891,176.276c-7.15-60.813-30.5-103.786-56.861-152.239 c-4.241-7.82-8.608-15.817-12.96-24.038H95.303c-4.359,8.221-8.711,16.218-12.975,24.038 c-28.615,52.628-53.71,98.79-58.338,168.372c18.45-5.482,40.558-9.617,73.897-9.617c47.708,0,72.443,8.461,96.323,17.235 c35.691-10.802,58.039-26.524,123.06-26.524C333.979,173.504,347.866,174.55,359.891,176.276z"/> <path style="fill:#F5F6F6;" d="M214.777,228.583c1.37,9.12-4.934,17.603-14.057,18.961l-79.225,11.764 c-9.109,1.355-17.606-4.934-18.947-14.046l-12.392-83.36c-1.348-9.119,4.948-17.606,14.057-18.957l79.232-11.775 c9.116-1.358,17.607,4.934,18.954,14.054L214.777,228.583z"/> <path style="fill:#1733a6;" d="M317.271,173.504c-99.047,0-99.047,36.483-198.109,36.483c-46.987,0-71.677-8.207-95.233-16.837 c-0.468,7.312-0.718,14.889-0.718,22.754c0,93.443,76.025,169.465,169.461,169.465c93.466,0,169.48-76.022,169.48-169.465 c0-14.094-0.81-27.227-2.261-39.627C347.866,174.55,333.979,173.504,317.271,173.504z"/> <path style="opacity:0.55;fill:#1b4dc0;" d="M97.203,209.316l5.346,35.945c1.341,9.112,9.838,15.401,18.947,14.046l79.225-11.764 c9.123-1.358,15.427-9.841,14.057-18.961l-5.014-33.759c-22.224,7.986-46.677,15.162-90.601,15.162 C111.238,209.987,103.97,209.747,97.203,209.316z"/> <path style="fill:#000000;" d="M308.266,163.073c2.341-8.917-2.99-18.041-11.9-20.372l-77.48-20.32 c-8.924-2.341-18.033,2.993-20.374,11.899l-18.225,69.476c42.238-9.834,61.722-28.048,125.203-30.062L308.266,163.073z"/> <path style="fill:#3148a5;" d="M189.041,236.175l77.48,20.32c8.917,2.345,18.033-2.993,20.375-11.911l18.593-70.889 c-63.481,2.014-82.965,20.228-125.203,30.062l-3.152,12.04C174.793,224.714,180.117,233.837,189.041,236.175z"/> <polygon style="opacity:0.32;fill:#000000;" points="114.324,4.06 153.799,4.06 91.128,101.562 "/> <path style="opacity:0.55;fill:#1b4dc0;" d="M134.433,357.159c17.82,7.919,37.54,12.326,58.239,12.326 c77.229,0,140.446-61.066,143.899-137.441L134.433,357.159z"/> <path style="opacity:0.55;fill:#1b4dc0;" d="M134.433,357.159c17.82,7.919,37.54,12.326,58.239,12.326 c77.229,0,140.446-61.066,143.899-137.441L134.433,357.159z"/> </g> <path style="fill:#000000;stroke:#070001;stroke-miterlimit:10;" d="M192.672,387.699"/> <path style="fill:#000000;stroke:#070001;stroke-miterlimit:10;" d="M192.672,389.426"/> <path style="fill:#000000;stroke:#070001;stroke-miterlimit:10;" d="M192.672,409.168"/> <path style="fill:#000000;stroke:#070001;stroke-miterlimit:10;" d="M192.672,466.622"/> <path style="fill:#000000;stroke:#070001;stroke-miterlimit:10;" d="M192.672,486.356"/> <path style="fill:#000000;stroke:#070001;stroke-miterlimit:10;" d="M192.672,488.098"/> <path style="fill:#000000;stroke:#070001;stroke-miterlimit:10;" d="M192.672,488.098"/> <path style="fill:#000000;stroke:#070001;stroke-miterlimit:10;" d="M192.672,387.699"/> </g> </g>
</svg>