<?xml version="1.0" encoding="iso-8859-1"?>
<!-- Uploaded to: SVG Repo, www.svgrepo.com, Generator: SVG Repo Mixer Tools -->
<svg version="1.1" id="Layer_1" xmlns="http://www.w3.org/2000/svg" xmlns:xlink="http://www.w3.org/1999/xlink" 
	 viewBox="0 0 512 512" xml:space="preserve">
<path style="fill:#E55639;" d="M172.556,116.87V16.696C172.556,7.473,165.077,0,155.86,0H89.077C79.86,0,72.382,7.473,72.382,16.696
	V116.87H172.556z"/>
<path style="fill:#CF4529;" d="M155.86,0h-33.391v116.87h50.087V16.696C172.556,7.473,165.077,0,155.86,0z"/>
<path style="fill:#E6EEFF;" d="M372.903,512c-9.217,0-16.696-7.473-16.696-16.696V395.13c0-9.223,7.479-16.696,16.696-16.696
	c9.217,0,16.696,7.473,16.696,16.696v100.174C389.599,504.527,382.121,512,372.903,512z"/>
<path style="fill:#DAE2F2;" d="M389.599,495.304V395.13c0-9.223-7.479-16.696-16.696-16.696V512
	C382.121,512,389.599,504.527,389.599,495.304z"/>
<path style="fill:#5C5F66;" d="M139.164,428.522V294.957h83.478v-33.391c0-36.063-19.367-69.009-50.087-86.817v-91.27H72.382v91.27
	c-30.72,17.809-50.087,50.755-50.087,86.817v233.739c0,9.238,7.456,16.696,16.696,16.696h166.957
	c9.239,0,16.696-7.457,16.696-16.696v-66.783H139.164z"/>
<path style="fill:#53565C;" d="M139.164,428.522V294.957h83.478v-33.391c0-36.063-19.367-69.009-50.087-86.817v-91.27h-50.087V512
	h83.478c9.239,0,16.696-7.457,16.696-16.696v-66.783H139.164z"/>
<path style="fill:#FFEACC;" d="M222.643,278.261v166.957h-116.87c-9.239,0-16.696-7.457-16.696-16.696V294.957
	c0-9.238,7.456-16.696,16.696-16.696H222.643z"/>
<path style="fill:#E6EEFF;" d="M488.531,278.261c-3.165-22.076-12.601-43.459-28.52-61.229c-3.163-3.533-7.684-5.554-12.435-5.554
	H298.228c-4.75,0-9.272,2.021-12.435,5.554c-15.919,17.768-25.353,39.15-28.52,61.229c-1.588,11.083-1.554,22.323,0.041,33.391
	h231.174C490.085,300.585,490.119,289.345,488.531,278.261z"/>
<path style="fill:#DAE2F2;" d="M460.011,217.032c-3.163-3.533-7.684-5.554-12.435-5.554h-74.674v100.174H488.49
	c1.595-11.067,1.629-22.308,0.041-33.391C485.365,256.185,475.93,234.802,460.011,217.032z"/>
<path style="fill:#C4CAD9;" d="M439.686,512H306.121c-9.217,0-16.696-7.473-16.696-16.696s7.479-16.696,16.696-16.696h133.565
	c9.217,0,16.696,7.473,16.696,16.696S448.903,512,439.686,512z"/>
<path style="fill:#B8BFCC;" d="M439.686,478.609h-66.783V512h66.783c9.217,0,16.696-7.473,16.696-16.696
	S448.903,478.609,439.686,478.609z"/>
<rect x="122.468" y="278.261" style="fill:#FFDBB2;" width="100.174" height="166.957"/>
<path style="fill:#E55639;" d="M488.531,278.261H257.275c-1.588,11.083-1.554,22.323,0.041,33.391
	c3.48,24.169,14.437,47.437,32.946,65.946c22.076,22.076,51.424,34.234,82.641,34.228c31.218,0,60.565-12.158,82.641-34.234
	c18.51-18.507,29.464-41.773,32.946-65.94C490.085,300.585,490.119,289.345,488.531,278.261z"/>
<path style="fill:#CF4529;" d="M372.903,278.261v133.565c31.218,0,60.565-12.158,82.641-34.234
	c18.51-18.507,29.464-41.773,32.946-65.94c1.595-11.067,1.629-22.308,0.041-33.391H372.903z"/>
</svg>