<?xml version="1.0" encoding="iso-8859-1"?>
<!-- Uploaded to: SVG Repo, www.svgrepo.com, Generator: SVG Repo Mixer Tools -->
<svg version="1.1" id="Layer_1" xmlns="http://www.w3.org/2000/svg" xmlns:xlink="http://www.w3.org/1999/xlink" 
	 viewBox="0 0 511.986 511.986" xml:space="preserve">
<path style="fill:#E6E9ED;" d="M309.316,319.992v181.323c0,5.891,4.781,10.671,10.672,10.671h149.324
	c5.891,0,10.672-4.78,10.672-10.671V319.992H309.316z"/>
<path style="fill:#CCD1D9;" d="M309.316,479.988v21.327c0,5.891,4.781,10.671,10.672,10.671h149.324
	c5.891,0,10.672-4.78,10.672-10.671v-21.327H309.316z"/>
<g>
	<rect x="309.32" y="362.643" style="fill:#FC6E51;" width="170.67" height="117.34"/>
	<path style="fill:#FC6E51;" d="M202.663,149.324V0H95.994v149.324l-63.998,63.999v277.32c0,11.781,9.547,21.343,21.327,21.343
		h191.995c11.781,0,21.343-9.562,21.343-21.343v-277.32L202.663,149.324z"/>
</g>
<g>
	<rect x="32" y="234.653" style="fill:#434A54;" width="234.66" height="213.34"/>
	<rect x="95.99" style="fill:#434A54;" width="106.67" height="85.33"/>
</g>
<g>
	<path style="fill:#E6E9ED;" d="M149.321,277.321c-41.233,0-74.654,19.108-74.654,42.671c0,23.562,33.421,42.654,74.654,42.654
		s74.67-19.093,74.67-42.654C223.991,296.43,190.554,277.321,149.321,277.321z M191.539,331.633
		c-10.766,6.156-26.156,9.687-42.218,9.687c-16.047,0-31.437-3.53-42.202-9.687c-7.641-4.359-11.125-9.094-11.125-11.641
		s3.484-7.281,11.125-11.656c10.766-6.156,26.155-9.688,42.202-9.688c16.062,0,31.452,3.531,42.218,9.688
		c7.64,4.375,11.124,9.109,11.124,11.656S199.178,327.273,191.539,331.633z"/>
	<path style="fill:#E6E9ED;" d="M191.992,383.99h-85.326c-5.891,0-10.672,4.766-10.672,10.656s4.781,10.672,10.672,10.672h85.326
		c5.89,0,10.671-4.781,10.671-10.672S197.882,383.99,191.992,383.99z"/>
	<polygon style="fill:#E6E9ED;" points="373.345,479.988 393.455,428.661 333.863,405.318 310.519,464.91 349.018,479.988 	"/>
	<polygon style="fill:#E6E9ED;" points="451,479.988 479.984,447.941 432.531,405.006 389.595,452.472 420.001,479.988 	"/>
</g>
<g>
	<path style="fill:#AAB2BC;" d="M351.987,490.643c5.89,0,10.671-4.765,10.671-10.655h-21.343
		C341.315,485.879,346.096,490.643,351.987,490.643z"/>
	<path style="fill:#AAB2BC;" d="M394.658,490.643c5.891,0,10.656-4.765,10.656-10.655h-21.328
		C383.986,485.879,388.767,490.643,394.658,490.643z"/>
	<path style="fill:#AAB2BC;" d="M437.312,490.643c5.891,0,10.672-4.765,10.672-10.655h-21.327
		C426.657,485.879,431.422,490.643,437.312,490.643z"/>
</g>
<g style="opacity:0.2;">
	<path style="fill:#FFFFFF;" d="M458.656,319.992v181.323c0,5.891-4.781,10.671-10.672,10.671h21.328
		c5.891,0,10.672-4.78,10.672-10.671V319.992H458.656z"/>
</g>
<g style="opacity:0.2;">
	<path style="fill:#FFFFFF;" d="M202.663,149.324V0H181.32v149.324l63.998,63.999v277.32c0,11.781-9.547,21.343-21.327,21.343
		h21.327c11.781,0,21.343-9.562,21.343-21.343v-277.32L202.663,149.324z"/>
</g>
</svg>